<svg width="544" height="300" viewBox="0 0 544 300" fill="none" xmlns="http://www.w3.org/2000/svg">
<path d="M89.7816 220.463V217.785L95.1382 215.91C101.209 213.946 104.244 208.857 104.244 200.644V63.5145C104.244 59.9435 103.798 57.0866 102.905 54.944C102.191 52.8013 100.138 51.0158 96.7452 49.5873L89.7816 46.3734V43.6951H141.473L191.022 173.325L237.624 43.6951H290.387V46.3734L286.101 47.9804C282.709 49.2302 280.388 51.0158 279.138 53.337C277.888 55.4796 277.263 58.3365 277.263 61.9076V201.983C277.263 205.554 277.709 208.322 278.602 210.286C279.495 212.25 281.638 213.946 285.03 215.374L290.387 217.785V220.463H223.697V217.785L229.321 215.374C232.714 213.946 234.857 212.25 235.749 210.286C236.642 208.322 237.088 205.554 237.088 201.983V141.721L237.624 65.1215L181.648 220.463H168.256L109.869 66.9963L110.672 133.686V201.179C110.672 205.108 111.208 208.322 112.279 210.821C113.529 213.143 115.85 214.839 119.243 215.91L125.135 217.785V220.463H89.7816Z" fill="black"/>
<path d="M334.44 224.481C320.87 224.481 309.085 221.713 299.086 216.178C289.087 210.464 281.32 202.429 275.785 192.073C270.428 181.717 267.75 169.575 267.75 155.648C267.75 141.721 270.607 129.669 276.321 119.491C282.213 109.314 290.159 101.457 300.158 95.922C310.335 90.3869 321.763 87.6193 334.44 87.6193C347.117 87.6193 358.455 90.3869 368.454 95.922C378.453 101.279 386.31 109.046 392.024 119.223C397.916 129.401 400.862 141.543 400.862 155.648C400.862 169.754 398.094 181.985 392.559 192.341C387.203 202.519 379.525 210.464 369.526 216.178C359.705 221.713 348.01 224.481 334.44 224.481ZM334.44 219.124C340.689 219.124 345.689 217.339 349.438 213.767C353.188 210.196 355.866 203.858 357.473 194.752C359.259 185.645 360.152 172.789 360.152 156.184C360.152 139.4 359.259 126.455 357.473 117.348C355.866 108.242 353.188 101.904 349.438 98.3325C345.689 94.7614 340.689 92.9759 334.44 92.9759C328.191 92.9759 323.102 94.7614 319.174 98.3325C315.424 101.904 312.656 108.242 310.871 117.348C309.264 126.455 308.46 139.4 308.46 156.184C308.46 172.789 309.264 185.645 310.871 194.752C312.656 203.858 315.424 210.196 319.174 213.767C323.102 217.339 328.191 219.124 334.44 219.124Z" fill="black"/>
<path d="M72.5066 88.7132L0.728027 45.3246V43.7177L72.5066 0.0612793V3.8109L6.08464 44.5211L72.5066 84.9636V88.7132Z" fill="black"/>
<path d="M399.684 299.139L458.339 44.6997H461.821L403.166 299.139H399.684Z" fill="black"/>
<path d="M472.221 267.267V263.517L538.643 223.075L472.221 182.365V178.615L544 222.271V223.878L472.221 267.267Z" fill="black"/>
</svg>
